HIERARCHY
ROOT Hips
{
  OFFSET 263.056 91.6644 -274.608
  CHANNELS 6 Xposition Yposition Zposition Zrotation Xrotation Yrotation
  JOINT LeftUpLeg
  {
    OFFSET 8.64259 1.95398 -2.38835
    CHANNELS 3 Zrotation Xrotation Yrotation
    JOINT LeftLeg
    {
      OFFSET 43.7702 0 0
      CHANNELS 3 Zrotation Xrotation Yrotation
      JOINT LeftFoot
      {
        OFFSET 40.6238 0 0
        CHANNELS 3 Zrotation Xrotation Yrotation
        JOINT LeftToeBase
        {
          OFFSET 12.7242 0 0
          CHANNELS 3 Zrotation Xrotation Yrotation
          End Site
          {
            OFFSET 0 0 0
          }
        }
      }
    }
  }
  JOINT RightUpLeg
  {
    OFFSET -8.2249 1.95398 -2.59336
    CHANNELS 3 Zrotation Xrotation Yrotation
    JOINT RightLeg
    {
      OFFSET 43.5653 0 0
      CHANNELS 3 Zrotation Xrotation Yrotation
      JOINT RightFoot
      {
        OFFSET 40.6238 0 0
        CHANNELS 3 Zrotation Xrotation Yrotation
        JOINT RightToeBase
        {
          OFFSET 12.7242 0 0
          CHANNELS 3 Zrotation Xrotation Yrotation
          End Site
          {
            OFFSET 0 0 0
          }
        }
      }
    }
  }
  JOINT Spine
  {
    OFFSET 0.165834 0.87714 6.61349
    CHANNELS 3 Zrotation Xrotation Yrotation
    JOINT Spine1
    {
      OFFSET 7.38963 1.71661e-005 0
      CHANNELS 3 Zrotation Xrotation Yrotation
      JOINT Spine2
      {
        OFFSET 11.9445 1.14441e-005 0
        CHANNELS 3 Zrotation Xrotation Yrotation
        JOINT Spine3
        {
          OFFSET 14.7254 4.19617e-005 0
          CHANNELS 3 Zrotation Xrotation Yrotation
          JOINT Spine4
          {
            OFFSET 10.9679 0 0
            CHANNELS 3 Zrotation Xrotation Yrotation
            JOINT RightShoulder
            {
              OFFSET 2.46616 -1.6653 3.69651
              CHANNELS 3 Zrotation Xrotation Yrotation
              JOINT RightArm
              {
                OFFSET 13.0012 0 0
                CHANNELS 3 Zrotation Xrotation Yrotation
                JOINT RightForeArm
                {
                  OFFSET 28.7848 1.52588e-005 0
                  CHANNELS 3 Zrotation Xrotation Yrotation
                  JOINT RightHand
                  {
                    OFFSET 26.5688 1.52588e-005 0
                    CHANNELS 3 Zrotation Xrotation Yrotation
                    End Site
                    {
                      OFFSET 0 0 0
                    }
                  }
                }
              }
            }
            JOINT LeftShoulder
            {
              OFFSET 2.38034 -1.29275 -3.7523
              CHANNELS 3 Zrotation Xrotation Yrotation
              JOINT LeftArm
              {
                OFFSET 16.3182 6.10352e-005 0
                CHANNELS 3 Zrotation Xrotation Yrotation
                JOINT LeftForeArm
                {
                  OFFSET 27.0901 0 0
                  CHANNELS 3 Zrotation Xrotation Yrotation
                  JOINT LeftHand
                  {
                    OFFSET 24.5451 1.52588e-005 0
                    CHANNELS 3 Zrotation Xrotation Yrotation
                    End Site
                    {
                      OFFSET 0 0 0
                    }
                  }
                }
              }
            }
            JOINT Neck
            {
              OFFSET 5.0226 -0.0266342 0
              CHANNELS 3 Zrotation Xrotation Yrotation
              JOINT Head
              {
                OFFSET 6.69364 2.86102e-005 0
                CHANNELS 3 Zrotation Xrotation Yrotation
                End Site
                {
                  OFFSET 0 0 0
                }
              }
            }
          }
        }
      }
    }
  }
}
MOTION
Frames:	17
Frame Time:	0.0416667
-292.793 86.1352 -291.213 48.434 -2.68209 72.308 178.763 69.1462 71.1401 -9.97335 -40.9196 10.4766 40.0733 -15.4709 -105.666 12.5065 -29.7755 20.5568 120.578 82.6569 118.418 -64.5735 -14.3312 9.85475 82.9615 -10.5907 -5.68086 -67.6028 -79.4442 59.4803 8.68579 2.33446 -84.3676 21.943 19.9809 6.75946 10.4201 20.2571 5.84006 -12.9579 17.0338 12.5613 7.05474 17.0338 12.5613 141.543 -30.2114 -9.50268 28.001 -59.9661 7.9009 34.6804 -38.3042 -5.50222 -56.5083 -2.78372 2.27833 28.6595 51.0943 -62.9033 -12.3803 -14.8931 -146.272 -19.6431 44.8969 -0.0434981 52.1057 4.24606 4.04242 -46.2958 -41.2645 -64.5424 115.746 25.8277 42.8573 
-293.291 86.1964 -291.598 48.3001 -2.77657 72.0193 179.004 68.9062 70.9632 -8.41109 -42.8362 10.7218 38.7948 -15.4051 -107.792 11.4029 -30.6192 19.1993 121.836 82.587 117.402 -65.2073 -14.3578 9.76099 83.5885 -10.909 -5.72521 -68.9162 -78.8165 57.6686 8.68799 2.31675 -84.3599 21.9798 19.9905 6.75987 10.4568 20.2671 5.84044 -12.9232 17.0331 12.5735 7.08939 17.0331 12.5735 141.347 -30.1701 -9.76267 28.0264 -61.642 8.05836 35.462 -39.1562 -5.91485 -54.7656 -3.75063 4.42314 25.9797 51.1463 -61.8916 -12.1097 -12.8471 -145.168 -20.1522 44.9971 -0.0435741 52.2531 4.03341 3.60588 -46.8924 -41.8724 -64.614 117.449 26.4792 42.3261 
-294.692 86.4046 -292.667 48 -3.0639 71.2098 179.808 68.3811 70.329 -3.86383 -49.939 11.8469 36.368 -12.7824 -113.995 8.65435 -31.5997 14.5253 126.137 82.2061 113.804 -66.8037 -14.37 9.47144 85.2581 -11.7815 -5.83566 -71.6171 -77.0527 53.5827 8.68722 2.27381 -84.3462 22.0699 19.9959 6.75801 10.5469 20.2728 5.83866 -12.8347 17.0311 12.5805 7.17791 17.0311 12.5805 140.792 -30.1061 -10.5492 28.1727 -66.2055 8.61111 37.3212 -41.3638 -7.42233 -48.9755 -6.01531 10.5696 16.7484 51.2779 -58.1662 -11.5099 -6.10577 -141.39 -21.7103 45.7252 -0.0457093 52.6744 3.39321 2.30963 -49.2096 -44.0332 -65.1097 123.503 28.079 40.0967 
-296.85 86.7665 -294.273 47.7168 -3.55556 69.9688 -178.654 67.9618 69.0529 1.37708 -57.3767 13.2198 35.9895 -10.2354 -120.028 6.04389 -29.6052 5.99426 133.584 81.1382 107.469 -68.8433 -14.2303 8.97757 87.5998 -13.0688 -5.96766 -73.8136 -74.3952 49.2907 8.67047 2.21839 -84.3586 22.1875 19.9556 6.71547 10.664 20.2306 5.79805 -12.716 17.0064 12.5266 7.29662 17.0064 12.5266 139.92 -30.1246 -11.8981 28.8481 -72.8581 9.98615 39.2545 -43.8302 -10.7151 -38.7492 -7.89064 19.8835 -1.3146 50.9941 -50.0135 -11.5062 6.06011 -133.948 -24.2381 47.6776 -0.0528198 53.2802 2.23031 0.0254078 -56.3799 -49.3121 -67.9437 137.53 28.1666 33.8586 
-299.613 87.2031 -296.266 47.6485 -4.28189 68.3839 -176.1 68.0608 66.9266 5.11973 -63.49 14.1926 38.4436 -9.19809 -124.982 6.70833 -23.0235 -4.31534 142.436 78.983 100.028 -70.935 -13.814 8.3001 90.2646 -14.6334 -6.0798 -74.7752 -71.0835 45.6561 8.62136 2.16512 -84.4309 22.3114 19.8194 6.57061 10.7863 20.0881 5.65986 -12.589 16.9195 12.3468 7.42366 16.9195 12.3468 138.746 -30.3385 -13.8976 32.0848 -80.7956 14.2269 40.5817 -45.0038 -16.1864 -26.6545 -7.94828 30.5448 -30.1991 48.0244 -35.4956 -14.766 23.5155 -120.265 -27.3082 52.1939 -0.0655624 53.7403 0.471178 -3.31599 -84.4679 -58.7333 -86.414 159.332 15.0892 25.0597 
-302.836 87.5814 -298.515 47.9816 -5.30134 66.5436 -171.472 69.3949 63.004 4.3993 -67.8493 14.0654 42.9806 -10.7689 -129.049 11.7813 -14.1668 -13.0352 150.477 75.4554 93.5486 -72.8366 -13.0348 7.48059 92.919 -16.329 -6.14759 -74.5823 -67.254 42.6498 8.5179 2.12762 -84.5976 22.4176 19.5258 6.27383 10.8889 19.7819 5.37742 -12.4747 16.7278 11.9738 7.53799 16.7278 11.9738 137.228 -30.8604 -16.7132 95.0017 -88.5238 78.4504 41.6263 -44.1498 -23.2402 -16.6156 -6.63897 40.9695 -67.6881 36.3798 -17.0117 -30.5614 41.5445 -89.3022 -29.1075 63.5355 -0.0942244 53.2902 -1.54101 -7.12066 -7.03162 -29.7132 -15.8487 -88.1228 34.1471 -63.0633 
-305.748 87.8195 -300.566 44.4117 -4.16264 63.6819 -170.379 77.0328 66.3968 0.631974 -71.2666 12.7553 48.055 -14.103 -132.021 18.5019 -6.61877 -18.629 169.776 74.7757 71.5842 -73.7888 -11.9414 6.98392 95.2971 -17.9632 -6.23941 -73.4508 -62.9225 40.0136 8.33023 1.57218 -84.9636 23.1982 19.0951 6.54949 11.6578 19.3642 5.67436 -11.6101 16.2397 12.092 8.4026 16.2397 12.092 135.242 -31.8084 -20.6357 -168.486 -81.4829 176.553 43.1576 -41.7914 -30.7501 -10.3378 -5.22712 50.7072 -106.901 8.37409 -5.52212 -59.9003 31.7524 -29.1293 156.166 89.34 -177.317 50.1061 -2.50477 -9.2355 -9.50068 -33.8646 -14.4405 -105.748 25.2666 -44.9374 
-318.501 86.7138 -307.945 117.287 -24.0388 92.1494 -175.526 4.51481 65.7519 -3.06749 -72.0457 13.6354 49.8948 -11.5707 -131.766 22.2328 -2.70945 -23.4171 161.727 -0.761864 88.8873 -83.6373 -9.04417 0.236702 95.5452 -19.4543 -5.27665 -72.38 -57.7478 36.6174 8.41017 8.31453 -90.2305 12.8449 16.4919 -4.69323 1.27851 16.2672 -5.43168 -22.1993 17.1193 0.629594 -2.18665 17.1193 0.62958 132.522 -33.3235 -26.1787 -165.036 -72.8855 -178.169 45.5014 -38.9674 -37.8657 -7.39453 -4.46115 59.6379 -150.794 -28.3376 -15.3268 -22.5341 -5.10565 10.301 178.583 47.1302 -179.997 41.0856 -2.80191 -11.1779 -9.408 -34.068 -10.2622 -108.791 15.259 -37.0746 
-323.63 86.4924 -311.579 132.937 -23.7306 99.2383 -172.984 3.08664 77.9191 -4.49134 -74.5298 12.7283 52.5002 -11.5558 -132.01 25.6645 0.122 -25.6276 161.992 -8.71374 72.5793 -86.0808 -6.87101 -1.5925 96.1042 -20.227 -5.00581 -69.8591 -51.9461 33.665 7.98527 8.56581 -92.6003 10.1884 14.7296 -6.40539 -1.4165 14.4338 -7.05717 -24.6251 15.9578 -1.57898 -4.61244 15.9578 -1.57897 128.587 -35.5774 -34.1902 -165.045 -64.7688 -176.218 48.4665 -36.5157 -44.128 -6.73156 -4.50528 67.4837 157.291 -40.3225 -48.6972 35.0399 -6.05916 17.146 178.689 28.0538 -179.998 33.6664 -3.98505 -16.3042 -8.26078 -32.6885 -5.12111 -109.008 6.81977 -30.489 
-326.236 86.2783 -313.809 129.214 -26.7509 97.5075 -172.042 9.17714 77.4251 -6.83291 -77.2078 11.0308 54.6738 -12.6572 -132.363 27.9756 1.87453 -26.7937 162.138 -11.0447 73.0576 -85.6717 -4.9547 -1.87597 95.0389 -20.0019 -5.07186 -66.4761 -45.1704 30.2204 6.19507 9.10839 -92.1659 8.91643 11.3955 -5.06224 -2.71564 11.1618 -5.5633 -25.6499 12.3829 -1.35583 -5.63721 12.3829 -1.35583 118.923 -37.1931 -51.5791 -158.673 -55.1503 -166.736 51.3704 -34.5594 -50.4341 -7.44632 -5.11564 73.7412 150.46 -29.256 -57.3009 42.0662 14.8368 17.8099 164.119 71.1999 -179.927 36.9145 -6.11987 -21.1076 3.49701 -25.6416 10.5921 -110.4 0.844497 -20.6498 
-328.418 85.8347 -315.66 124.441 -29.5826 94.9304 -171.174 15.9881 76.7425 -9.26967 -79.691 9.55026 55.8173 -13.5748 -132.503 29.1587 2.75872 -27.6468 162.408 -12.542 73.4856 -84.4757 -3.82043 -2.05162 91.2143 -18.5702 -5.92423 -61.8843 -37.4257 26.2066 4.73768 9.08877 -91.4778 8.83305 8.7951 -3.511 -2.81409 8.63217 -3.89682 -25.5839 9.44019 -0.684103 -5.57125 9.44018 -0.684103 109.595 -39.9915 -68.9861 -158.453 -50.8688 -164.677 54.8629 -34.4895 -53.7671 -8.66447 -6.09595 78.6925 167.84 -23.3431 -49.8103 11.1179 29.7226 33.8847 -22.8321 47.9897 -0.050023 35.4259 -9.45015 -31.3045 9.17272 -18.8416 14.9538 -106.85 -5.03113 -12.9769 
-330.042 85.2429 -317.001 118.666 -32.0991 91.3878 -170.398 23.0009 75.7959 -10.7176 -82.1095 8.88289 56.0411 -14.232 -132.52 29.544 3.06578 -28.3229 162.881 -12.9345 73.8025 -82.573 -2.90005 -2.16784 84.8905 -15.8469 -6.53709 -55.5248 -29.299 21.9472 3.06934 9.09965 -90.6822 8.72341 5.82114 -1.73086 -2.93592 5.73933 -1.98613 -25.5765 6.07125 0.105023 -5.56386 6.07127 0.105027 98.7054 -40.8519 -88.0701 -155.115 -48.8805 -158.96 58.7265 -35.6616 -54.5083 -9.85586 -7.13861 81.9967 -171.24 -22.381 -36.6058 -16.0069 27.8235 35.9228 -21.0283 2.77859 -0.0309407 28.4475 -9.92865 -39.0891 17.2257 -10.773 16.8578 -101.916 -9.38325 -4.46868 
-330.978 84.5781 -317.74 112.321 -34.1579 87.2055 -169.743 29.6802 74.7713 -9.77755 -84.4138 10.3645 55.5244 -14.7609 -132.49 29.3255 2.95038 -28.8156 163.58 -12.4411 74.0049 -79.9891 -1.72404 -2.27507 76.8481 -12.2551 -6.02552 -47.42 -21.8209 17.8719 1.85471 8.77613 -90.0184 9.32964 3.69036 -0.307839 -2.33614 3.67323 -0.470184 -24.9121 3.61204 0.816995 -4.89949 3.61206 0.816996 90.398 -41.0752 -102.433 -152.14 -49.3008 -154.686 62.7967 -37.4556 -51.8521 -10.6203 -8.0092 83.6721 -158.79 -25.4065 -24.6415 -24.7388 22.8542 29.2523 -17.1 -13.1677 -0.0260133 23.3777 -8.76062 -41.07 21.2312 -5.74777 14.966 -93.2918 -11.424 1.86444 
-331.091 83.9256 -317.84 106.242 -35.7228 83.3843 -169.356 35.4402 74.1801 -3.55599 -86.2483 17.1644 54.4798 -15.4089 -132.488 28.5851 2.46992 -29.0335 164.517 -11.7779 74.3682 -76.7749 -0.969428 -2.38239 67.9416 -8.48554 -5.00076 -38.4265 -15.8756 14.3738 0.972486 8.29996 -89.5891 10.2687 2.12538 0.634029 -1.40065 2.15123 0.539812 -23.9457 1.83655 1.24364 -3.93307 1.83658 1.24365 84.2286 -40.8585 -112.935 -148.706 -51.593 -151.215 66.5886 -39.6341 -46.0777 -10.6806 -8.40095 83.5543 -150.765 -30.1696 -13.5921 -29.1184 18.1955 23.9205 -13.3822 -17.7152 -0.020936 20.4375 -7.74211 -41.0496 21.7848 -2.56989 12.9036 -81.4166 -10.8252 5.83651 
-330.219 83.3914 -317.171 101.1 -37.0911 80.5031 -169.578 39.6863 74.3731 13.9354 -87.3896 35.2693 52.9373 -16.3055 -132.524 27.2675 1.57202 -28.8619 165.652 -11.3811 74.8833 -73.1538 -0.457282 -2.59139 59.3607 -5.1389 -3.55691 -29.7425 -11.7374 11.7409 0.392163 7.91801 -89.3352 11.0306 1.08887 1.21859 -0.640412 1.14144 1.16947 -23.1727 0.67234 1.48945 -3.16006 0.672343 1.48945 80.4283 -40.9187 -119.176 -141.412 -55.7359 -144.72 70.0575 -42.8616 -36.7453 -9.68761 -7.8265 81.2056 -144.429 -35.8984 -2.65939 -30.8022 13.9096 20.2867 -9.7657 -15.6366 -0.015168 18.8493 -6.95199 -39.8628 20.9656 -0.701412 11.4511 -67.0396 -8.39257 6.96297 
-328.185 83.076 -315.532 97.6673 -38.4136 78.8734 -170.655 41.4981 75.342 35.2393 -87.4802 56.8985 50.8447 -17.3682 -132.472 25.1287 0.0343143 -28.0602 166.711 -11.5878 75.274 -69.5668 0.0327296 -2.95126 51.9859 -2.50978 -1.96461 -22.2398 -9.13548 10.0925 0.0353167 7.70879 -89.1731 11.4503 0.456514 1.60085 -0.221566 0.526512 1.57921 -22.7488 -0.0456436 1.66402 -2.73613 -0.0456517 1.66402 78.1263 -41.802 -122.45 -126.802 -61.9827 -131.749 74.6119 -47.9571 -21.7936 -7.18496 -5.61802 75.3721 -138.186 -41.6217 8.54781 -31.2212 9.92346 18.2247 -6.2692 -10.1699 -0.00963728 17.9735 -6.23314 -37.6712 18.1615 -0.0189367 10.9597 -49.8156 -5.3133 4.8659 
-324.668 83.0705 -312.677 95.1486 -40.0885 78.1936 -172.54 41.2103 77.1592 38.0979 -86.635 59.6819 47.9273 -18.6256 -131.959 21.5724 -2.7607 -26.0008 168.083 -11.5689 75.8834 -66.4192 0.645403 -3.52333 46.1514 -0.581243 -0.454337 -16.2367 -7.64646 9.40446 -0.121086 7.5788 -89.0632 11.711 0.198783 1.84648 0.0387638 0.279847 1.83594 -22.4861 -0.365253 1.82089 -2.47346 -0.365241 1.82088 76.3521 -43.9823 -124.123 -94.2708 -68.2734 -101.465 80.9687 -74.5183 0.11496 -2.53842 -1.17549 62.1166 -131.003 -46.7121 20.5969 -31.1731 6.54037 17.3949 -3.24673 -3.26515 -0.00485963 17.3535 -5.42301 -34.361 12.4367 -0.37926 11.4235 -29.9241 -3.16068 -0.291493 
